<mxfile host="app.diagrams.net" modified="2024-07-22T14:39:39.732Z" agent="Mozilla/5.0 (Windows NT 10.0; Win64; x64) AppleWebKit/537.36 (KHTML, like Gecko) Chrome/126.0.0.0 Safari/537.36" etag="ZDLCyUZcvw7EQP9BCLvp" version="24.7.1" type="github">
  <diagram name="第 1 页" id="zslPpBOo_P6XogDbhWJ_">
    <mxGraphModel dx="1646" dy="780" grid="1" gridSize="10" guides="1" tooltips="1" connect="1" arrows="1" fold="1" page="1" pageScale="1" pageWidth="3300" pageHeight="4681" math="0" shadow="0">
      <root>
        <mxCell id="0" />
        <mxCell id="1" parent="0" />
      </root>
    </mxGraphModel>
  </diagram>
</mxfile>
